<svg width="79" height="24" viewBox="0 0 79 24" fill="none" xmlns="http://www.w3.org/2000/svg">
<rect width="24" height="24" fill="white"/>
<path d="M4.75195 17V7.04688H7.95801C8.83757 7.04688 9.62826 7.2474 10.3301 7.64844C11.0319 8.04492 11.5788 8.60775 11.9707 9.33691C12.3672 10.0615 12.5677 10.875 12.5723 11.7773V12.2354C12.5723 13.1468 12.3786 13.9648 11.9912 14.6895C11.6084 15.4095 11.0661 15.9746 10.3643 16.3848C9.66699 16.7904 8.8877 16.9954 8.02637 17H4.75195ZM7.15137 8.89941V15.1543H7.98535C8.6735 15.1543 9.20215 14.9105 9.57129 14.4229C9.94043 13.9307 10.125 13.2015 10.125 12.2354V11.8047C10.125 10.8431 9.94043 10.1185 9.57129 9.63086C9.20215 9.14323 8.66439 8.89941 7.95801 8.89941H7.15137ZM16.2021 15.1543H20.3789V17H13.8027V7.04688H16.2021V15.1543Z" fill="#0E2439"/>
<path d="M34.7617 16V7.46875H37.3867C38.1367 7.46875 38.8066 7.63867 39.3965 7.97852C39.9902 8.31445 40.4531 8.79492 40.7852 9.41992C41.1172 10.041 41.2832 10.748 41.2832 11.541V11.9336C41.2832 12.7266 41.1191 13.4316 40.791 14.0488C40.4668 14.666 40.0078 15.1445 39.4141 15.4844C38.8203 15.8242 38.1504 15.9961 37.4043 16H34.7617ZM36.5195 8.89258V14.5879H37.3691C38.0566 14.5879 38.582 14.3633 38.9453 13.9141C39.3086 13.4648 39.4941 12.8223 39.502 11.9863V11.5352C39.502 10.668 39.3223 10.0117 38.9629 9.56641C38.6035 9.11719 38.0781 8.89258 37.3867 8.89258H36.5195ZM47.6992 12.3027H44.3242V14.5879H48.2852V16H42.5664V7.46875H48.2734V8.89258H44.3242V10.9258H47.6992V12.3027ZM52.4688 13.8848L54.4023 7.46875H56.3594L53.3887 16H51.5547L48.5957 7.46875H50.5469L52.4688 13.8848ZM58.9258 14.5879H62.6582V16H57.168V7.46875H58.9258V14.5879ZM70.3047 11.9277C70.3047 12.7676 70.1562 13.5039 69.8594 14.1367C69.5625 14.7695 69.1367 15.2578 68.582 15.6016C68.0312 15.9453 67.3984 16.1172 66.6836 16.1172C65.9766 16.1172 65.3457 15.9473 64.791 15.6074C64.2363 15.2676 63.8066 14.7832 63.502 14.1543C63.1973 13.5215 63.043 12.7949 63.0391 11.9746V11.5527C63.0391 10.7129 63.1895 9.97461 63.4902 9.33789C63.7949 8.69727 64.2227 8.20703 64.7734 7.86719C65.3281 7.52344 65.9609 7.35156 66.6719 7.35156C67.3828 7.35156 68.0137 7.52344 68.5645 7.86719C69.1191 8.20703 69.5469 8.69727 69.8477 9.33789C70.1523 9.97461 70.3047 10.7109 70.3047 11.5469V11.9277ZM68.5234 11.541C68.5234 10.6465 68.3633 9.9668 68.043 9.50195C67.7227 9.03711 67.2656 8.80469 66.6719 8.80469C66.082 8.80469 65.627 9.03516 65.3066 9.49609C64.9863 9.95312 64.8242 10.625 64.8203 11.5117V11.9277C64.8203 12.7988 64.9805 13.4746 65.3008 13.9551C65.6211 14.4355 66.082 14.6758 66.6836 14.6758C67.2734 14.6758 67.7266 14.4453 68.043 13.9844C68.3594 13.5195 68.5195 12.8438 68.5234 11.957V11.541ZM78.332 14.9219C78.0156 15.3008 77.5684 15.5957 76.9902 15.8066C76.4121 16.0137 75.7715 16.1172 75.0684 16.1172C74.3301 16.1172 73.6816 15.957 73.123 15.6367C72.5684 15.3125 72.1387 14.8438 71.834 14.2305C71.5332 13.6172 71.3789 12.8965 71.3711 12.0684V11.4883C71.3711 10.6367 71.5137 9.90039 71.7988 9.2793C72.0879 8.6543 72.502 8.17773 73.041 7.84961C73.584 7.51758 74.2188 7.35156 74.9453 7.35156C75.957 7.35156 76.748 7.59375 77.3184 8.07812C77.8887 8.55859 78.2266 9.25977 78.332 10.1816H76.6211C76.543 9.69336 76.3691 9.33594 76.0996 9.10938C75.834 8.88281 75.4668 8.76953 74.998 8.76953C74.4004 8.76953 73.9453 8.99414 73.6328 9.44336C73.3203 9.89258 73.1621 10.5605 73.1582 11.4473V11.9922C73.1582 12.8867 73.3281 13.5625 73.668 14.0195C74.0078 14.4766 74.5059 14.7051 75.1621 14.7051C75.8223 14.7051 76.293 14.5645 76.5742 14.2832V12.8125H74.9746V11.5176H78.332V14.9219Z" fill="white"/>
</svg>
