<svg width="24" height="24" viewBox="0 0 24 24" fill="none" xmlns="http://www.w3.org/2000/svg">
<rect width="24" height="24" fill="white"/>
<path d="M4.75195 17V7.04688H7.95801C8.83757 7.04688 9.62826 7.2474 10.3301 7.64844C11.0319 8.04492 11.5788 8.60775 11.9707 9.33691C12.3672 10.0615 12.5677 10.875 12.5723 11.7773V12.2354C12.5723 13.1468 12.3786 13.9648 11.9912 14.6895C11.6084 15.4095 11.0661 15.9746 10.3643 16.3848C9.66699 16.7904 8.8877 16.9954 8.02637 17H4.75195ZM7.15137 8.89941V15.1543H7.98535C8.6735 15.1543 9.20215 14.9105 9.57129 14.4229C9.94043 13.9307 10.125 13.2015 10.125 12.2354V11.8047C10.125 10.8431 9.94043 10.1185 9.57129 9.63086C9.20215 9.14323 8.66439 8.89941 7.95801 8.89941H7.15137ZM16.2021 15.1543H20.3789V17H13.8027V7.04688H16.2021V15.1543Z" fill="#0E2439"/>
</svg>
